<svg width="109" height="141" viewBox="0 0 109 141" fill="none" xmlns="http://www.w3.org/2000/svg">
<path d="M53.7413 0.386025L60.2171 7.45337C61.6732 8.75728 63.2512 9.91208 65.1076 10.9876C70.5296 14.1379 75.6786 17.4373 80.3052 20.9715C91.2765 29.3428 98.6787 38.6393 103.962 48.6931C107.133 54.8351 108.853 61.1358 108.982 67.5062C109.512 86.553 98.2747 102.907 75.6185 116.499C71.9183 118.648 67.9597 120.64 63.7135 122.411C61.4693 122.411 60.4064 121.411 59.4818 120.491C57.7619 118.803 56.7062 116.877 56.1766 114.961C55.3794 112.656 54.857 110.352 55.1155 107.973V106.898C54.9335 106.669 52.9551 0.928528 53.7432 0.387083V0.38814L53.7413 0.386025Z" fill="#599636"/>
<path d="M53.7414 0.151313C53.4756 -0.156422 53.2117 0.0762301 52.9442 0.226397C53.0734 1.76825 52.147 3.14301 50.7 4.45644C49.1075 5.76035 46.9999 6.76181 44.8831 7.83624C33.131 13.7488 23.8796 20.8912 16.4701 28.8786C6.61263 39.6292 1.53101 51.1498 0.0913436 63.2794C-0.56752 67.6543 2.47381 83.0929 4.84717 87.5472C11.323 99.3722 22.955 109.281 38.0215 117.881C41.7217 119.951 45.6803 121.872 49.7755 123.718C50.9658 123.718 51.095 123.102 51.3662 122.643C51.8849 121.661 52.2871 120.659 52.5565 119.646L55.2102 108.129L53.7396 0.151313H53.7414Z" fill="#6CAC48"/>
<path d="M60.2172 127.088C60.4829 125.326 61.939 123.863 63.5243 122.405C61.9317 122.022 60.7487 121.259 59.8241 120.409C59.0269 119.642 58.368 118.721 57.8529 117.875C56.0019 114.65 55.6088 111.266 55.0773 107.971V105.975C54.4185 106.283 54.2802 108.892 54.2802 109.28C53.9107 112.754 53.0898 116.238 51.8995 119.649C51.5046 121.032 51.2406 122.411 49.7755 123.64C49.7755 123.794 49.7755 123.948 49.9047 124.178C52.2854 128.25 52.9388 132.395 53.3392 136.621V138.163C53.3392 140.004 53.21 139.616 55.8418 140.233C56.9029 140.463 58.0859 140.541 59.147 141C59.9442 141 60.0734 140.617 60.0734 140.308L59.6785 137.775V130.707C59.5492 129.473 59.9442 128.249 60.2081 127.095L60.2172 127.088V127.088Z" fill="#C2BFBF"/>
<g clip-path="url(#clip0)">
<path fill-rule="evenodd" clip-rule="evenodd" d="M32.2682 56.9715H76.7373C77.604 56.9715 78.4353 57.2905 79.0482 57.8582C79.6611 58.4259 80.0054 59.196 80.0054 59.9989V91.9777C80.0054 92.7806 79.6611 93.5506 79.0482 94.1184C78.4353 94.6861 77.604 95.005 76.7373 95.005H32.2682C31.4014 95.005 30.5701 94.6861 29.9572 94.1184C29.3443 93.5506 29 92.7806 29 91.9777V59.9938C29 59.1909 29.3443 58.4209 29.9572 57.8532C30.5701 57.2854 31.4014 56.9665 32.2682 56.9665V56.9715Z" fill="#FBD734"/>
<path fill-rule="evenodd" clip-rule="evenodd" d="M51.8174 78.0367L48.2932 86.589H60.7068L57.4387 77.9056C58.7294 77.2886 59.7563 76.2845 60.3516 75.0573C60.9469 73.8301 61.0755 72.4522 60.7164 71.1485C60.3573 69.8448 59.5318 68.6924 58.3745 67.8794C57.2172 67.0664 55.7965 66.6407 54.3445 66.672C52.8924 66.7033 51.4946 67.1896 50.3794 68.0516C49.2642 68.9136 48.4973 70.1003 48.2041 71.418C47.9108 72.7357 48.1084 74.1066 48.7647 75.3069C49.4209 76.5072 50.4971 77.4659 51.8174 78.0267V78.0367Z" fill="#36464E"/>
<path fill-rule="evenodd" clip-rule="evenodd" d="M74.5203 56.9707H68.338V52.2177C68.3598 48.6503 66.8876 45.214 64.231 42.6312C62.9872 41.3926 61.4812 40.4048 59.8069 39.7294C58.1327 39.054 56.3261 38.7054 54.5 38.7054C52.6738 38.7054 50.8673 39.054 49.1931 39.7294C47.5188 40.4048 46.0128 41.3926 44.769 42.6312C42.1123 45.214 40.6402 48.6503 40.662 52.2177V56.9707H34.4796V52.2177C34.4709 47.1801 36.5628 42.3339 40.3188 38.6906C42.137 36.8944 44.3336 35.4627 46.7727 34.484C49.2119 33.5052 51.8418 33.0003 54.5 33.0003C57.1582 33.0003 59.7881 33.5052 62.2273 34.484C64.6664 35.4627 66.863 36.8944 68.6812 38.6906C72.44 42.3321 74.5324 47.1795 74.5203 52.2177V56.9707V56.9707Z" fill="#36464E"/>
</g>
<defs>
<clipPath id="clip0">
<rect width="51" height="62" fill="white" transform="translate(29 33)"/>
</clipPath>
</defs>
</svg>
