<svg width="109" height="123" viewBox="0 0 109 123" fill="none" xmlns="http://www.w3.org/2000/svg">
<g clip-path="url(#clip0)">
<path fill-rule="evenodd" clip-rule="evenodd" d="M68.43 87.08C48.73 87.08 44.6 78.04 44.6 70.45C44.6 69.73 45.18 69.15 45.9 69.15H51.72C52.36 69.15 52.9 69.62 53 70.25C53.88 76.18 56.49 79.17 68.41 79.17C77.9 79.17 81.93 77.03 81.93 71.99C81.93 69.09 80.78 66.94 66.04 65.5C53.71 64.28 46.09 61.57 46.09 51.7C46.09 42.62 53.75 37.21 66.59 37.21C81.01 37.21 88.15 42.21 89.05 52.97C89.08 53.34 88.95 53.7 88.7 53.97C88.45 54.23 88.1 54.39 87.74 54.39H81.9C81.29 54.39 80.76 53.96 80.64 53.38C79.23 47.15 75.83 45.15 66.57 45.15C56.21 45.15 55.01 48.76 55.01 51.46C55.01 54.74 56.43 55.7 70.41 57.55C84.25 59.39 90.82 61.98 90.82 71.71C90.82 81.52 82.64 87.14 68.37 87.14L68.43 87.08ZM54.52 122.88C52.87 122.88 51.24 122.45 49.8 121.62L34.77 112.72C32.52 111.46 33.62 111.02 34.36 110.76C37.35 109.71 37.96 109.48 41.16 107.66C41.5 107.47 41.94 107.54 42.28 107.74L53.83 114.59C54.25 114.82 54.84 114.82 55.23 114.59L100.26 88.6C100.68 88.36 100.95 87.88 100.95 87.38V35.43C100.95 34.91 100.68 34.45 100.25 34.19L55.23 8.22C54.81 7.97 54.26 7.97 53.84 8.22L8.84 34.19C8.4 34.44 8.13 34.92 8.13 35.42V87.38C8.13 87.88 8.4 88.35 8.83 88.59L21.16 95.71C27.85 99.06 31.95 95.11 31.95 91.15V39.86C31.95 39.13 32.52 38.56 33.26 38.56H38.96C39.67 38.56 40.26 39.12 40.26 39.86V91.17C40.26 100.1 35.39 105.22 26.93 105.22C24.33 105.22 22.27 105.22 16.55 102.4L4.72 95.59C1.8 93.9 0 90.75 0 87.38V35.42C0 32.04 1.8 28.88 4.72 27.21L49.79 1.21C52.64 -0.4 56.43 -0.4 59.26 1.21L104.28 27.22C107.19 28.9 109 32.04 109 35.43V87.39C109 90.76 107.19 93.9 104.28 95.6L59.26 121.6C57.82 122.43 56.18 122.86 54.52 122.86V122.88Z" fill="#689F63"/>
</g>
<g clip-path="url(#clip1)">
<path fill-rule="evenodd" clip-rule="evenodd" d="M32.2682 45.9715H76.7373C77.604 45.9715 78.4353 46.2905 79.0482 46.8582C79.6611 47.4259 80.0054 48.196 80.0054 48.9989V80.9777C80.0054 81.7806 79.6611 82.5506 79.0482 83.1184C78.4353 83.6861 77.604 84.005 76.7373 84.005H32.2682C31.4014 84.005 30.5701 83.6861 29.9572 83.1184C29.3443 82.5506 29 81.7806 29 80.9777V48.9938C29 48.1909 29.3443 47.4209 29.9572 46.8532C30.5701 46.2854 31.4014 45.9665 32.2682 45.9665V45.9715Z" fill="#FBD734"/>
<path fill-rule="evenodd" clip-rule="evenodd" d="M51.8174 67.0368L48.2932 75.589H60.7068L57.4386 66.9056C58.7294 66.2886 59.7562 65.2846 60.3516 64.0573C60.9469 62.8301 61.0755 61.4522 60.7164 60.1485C60.3573 58.8449 59.5317 57.6924 58.3745 56.8794C57.2172 56.0664 55.7965 55.6408 54.3445 55.6721C52.8924 55.7033 51.4946 56.1897 50.3794 57.0516C49.2642 57.9136 48.4973 59.1003 48.2041 60.4181C47.9108 61.7358 48.1084 63.1067 48.7647 64.307C49.4209 65.5072 50.497 66.466 51.8174 67.0267V67.0368Z" fill="#36464E"/>
<path fill-rule="evenodd" clip-rule="evenodd" d="M74.5203 45.9714H68.338V41.2185C68.3598 37.651 66.8877 34.2147 64.231 31.6319C62.9872 30.3934 61.4812 29.4056 59.8069 28.7301C58.1327 28.0547 56.3261 27.7061 54.5 27.7061C52.6739 27.7061 50.8673 28.0547 49.1931 28.7301C47.5188 29.4056 46.0128 30.3934 44.769 31.6319C42.1123 34.2147 40.6402 37.651 40.662 41.2185V45.9714H34.4797V41.2185C34.4709 36.1808 36.5629 31.3346 40.3188 27.6913C42.137 25.8951 44.3336 24.4634 46.7727 23.4847C49.2119 22.5059 51.8418 22.001 54.5 22.001C57.1582 22.001 59.7881 22.5059 62.2273 23.4847C64.6664 24.4634 66.863 25.8951 68.6812 27.6913C72.44 31.3329 74.5324 36.1802 74.5203 41.2185V45.9714V45.9714Z" fill="#36464E"/>
</g>
<defs>
<clipPath id="clip0">
<rect width="109" height="122.88" fill="white"/>
</clipPath>
<clipPath id="clip1">
<rect width="51" height="62" fill="white" transform="translate(29 22)"/>
</clipPath>
</defs>
</svg>
