<svg width="123" height="110" viewBox="0 0 123 110" fill="none" xmlns="http://www.w3.org/2000/svg">
<g clip-path="url(#clip0)">
<path fill-rule="evenodd" clip-rule="evenodd" d="M122.88 54.73C122.88 46.59 112.69 38.88 97.06 34.09C100.67 18.16 99.06 5.49 92 1.43C90.37 0.48 88.47 0.03 86.39 0.03V5.62C87.54 5.62 88.47 5.85 89.25 6.27C92.66 8.22 94.13 15.66 92.98 25.23C92.7 27.58 92.25 30.06 91.7 32.59C86.79 31.39 81.43 30.46 75.8 29.86C72.42 25.23 68.91 21.02 65.38 17.34C73.54 9.74 81.2 5.59 86.41 5.59V0C79.52 0 70.51 4.91 61.39 13.43C52.27 4.96 43.26 0.1 36.37 0.1V5.69C41.55 5.69 49.24 9.82 57.41 17.36C53.9 21.04 50.4 25.22 47.07 29.86C41.41 30.46 36.05 31.39 31.14 32.61C30.56 30.11 30.14 27.68 29.84 25.35C28.66 15.78 30.12 8.34 33.5 6.36C34.25 5.91 35.23 5.71 36.38 5.71V0.13C34.28 0.13 32.37 0.58 30.72 1.53C23.68 5.59 22.1 18.24 25.74 34.12C10.14 38.92 0 46.61 0 54.73C0 62.87 10.19 70.58 25.82 75.37C22.21 91.3 23.82 103.97 30.88 108.03C32.51 108.98 34.41 109.43 36.52 109.43C43.41 109.43 52.42 104.52 61.54 96C70.66 104.47 79.67 109.33 86.56 109.33C88.66 109.33 90.57 108.88 92.22 107.93C99.26 103.87 100.84 91.22 97.2 75.34C112.74 70.56 122.88 62.84 122.88 54.73ZM72.86 54.73C72.86 48.41 67.74 43.28 61.41 43.28C55.09 43.28 49.96 48.4 49.96 54.73C49.96 61.06 55.08 66.18 61.41 66.18C67.74 66.17 72.86 61.05 72.86 54.73ZM90.27 38.02C89.34 41.25 88.19 44.58 86.89 47.91C85.86 45.91 84.79 43.9 83.61 41.9C82.46 39.9 81.23 37.94 80 36.04C83.56 36.57 86.99 37.22 90.27 38.02ZM78.8 64.7C76.85 68.08 74.84 71.29 72.76 74.27C69.03 74.6 65.25 74.77 61.44 74.77C57.66 74.77 53.88 74.59 50.17 74.29C48.09 71.31 46.06 68.13 44.11 64.77C42.21 61.49 40.48 58.16 38.9 54.8C40.45 51.44 42.21 48.09 44.08 44.81C46.03 41.43 48.04 38.22 50.12 35.24C53.85 34.91 57.63 34.74 61.44 34.74C65.22 34.74 69 34.92 72.71 35.22C74.79 38.2 76.82 41.38 78.77 44.74C80.67 48.02 82.4 51.35 83.98 54.71C82.4 58.06 80.68 61.41 78.8 64.7ZM86.89 61.44C88.24 64.8 89.39 68.15 90.35 71.41C87.07 72.21 83.61 72.89 80.03 73.41C81.26 71.48 82.48 69.5 83.64 67.47C84.78 65.47 85.86 63.44 86.89 61.44ZM61.49 88.16C59.16 85.76 56.83 83.08 54.53 80.15C56.78 80.25 59.09 80.33 61.42 80.33C63.77 80.33 66.1 80.28 68.38 80.15C66.12 83.08 63.79 85.76 61.49 88.16ZM42.86 73.41C39.3 72.88 35.87 72.23 32.59 71.43C33.52 68.2 34.67 64.87 35.97 61.54C37 63.54 38.07 65.55 39.25 67.55C40.43 69.56 41.63 71.51 42.86 73.41ZM61.36 21.29C63.69 23.69 66.02 26.37 68.32 29.3C66.07 29.2 63.76 29.12 61.43 29.12C59.08 29.12 56.75 29.17 54.47 29.3C56.73 26.37 59.06 23.69 61.36 21.29ZM42.83 36.04C41.6 37.97 40.38 39.95 39.22 41.98C38.07 43.98 36.99 45.99 35.96 47.99C34.61 44.63 33.46 41.28 32.5 38.02C35.79 37.24 39.25 36.57 42.83 36.04ZM20.16 67.4C11.29 63.62 5.56 58.66 5.56 54.73C5.56 50.8 11.3 45.81 20.16 42.06C22.31 41.13 24.67 40.31 27.1 39.53C28.53 44.44 30.41 49.55 32.74 54.78C30.44 59.99 28.58 65.07 27.18 69.96C24.7 69.18 22.34 68.33 20.16 67.4ZM33.64 103.19C30.23 101.24 28.76 93.8 29.91 84.23C30.19 81.88 30.64 79.4 31.19 76.87C36.1 78.07 41.46 79 47.09 79.6C50.47 84.23 53.98 88.44 57.51 92.12C49.34 99.71 41.68 103.87 36.47 103.87C35.34 103.84 34.39 103.62 33.64 103.19ZM93.05 84.11C94.23 93.68 92.77 101.12 89.39 103.1C88.64 103.55 87.66 103.75 86.51 103.75C81.33 103.75 73.64 99.62 65.47 92.08C68.98 88.4 72.48 84.22 75.81 79.58C81.47 78.98 86.83 78.05 91.74 76.82C92.32 79.35 92.77 81.78 93.05 84.11ZM102.69 67.4C100.54 68.33 98.18 69.15 95.75 69.93C94.32 65.02 92.44 59.91 90.11 54.68C92.41 49.47 94.27 44.39 95.67 39.5C98.15 40.28 100.5 41.13 102.71 42.05C111.58 45.83 117.31 50.79 117.31 54.72C117.29 58.66 111.56 63.64 102.69 67.4Z" fill="#00D8FF"/>
<g clip-path="url(#clip1)">
<path fill-rule="evenodd" clip-rule="evenodd" d="M38.2682 46.9715H82.7373C83.604 46.9715 84.4353 47.2905 85.0482 47.8582C85.6611 48.4259 86.0054 49.196 86.0054 49.9989V81.9777C86.0054 82.7806 85.6611 83.5506 85.0482 84.1184C84.4353 84.6861 83.604 85.005 82.7373 85.005H38.2682C37.4014 85.005 36.5701 84.6861 35.9572 84.1184C35.3443 83.5506 35 82.7806 35 81.9777V49.9938C35 49.1909 35.3443 48.4209 35.9572 47.8532C36.5701 47.2854 37.4014 46.9665 38.2682 46.9665V46.9715Z" fill="#FBD734"/>
<path fill-rule="evenodd" clip-rule="evenodd" d="M57.8174 68.0368L54.2932 76.589H66.7068L63.4386 67.9056C64.7294 67.2886 65.7562 66.2846 66.3516 65.0573C66.9469 63.8301 67.0755 62.4522 66.7164 61.1485C66.3573 59.8449 65.5317 58.6924 64.3745 57.8794C63.2172 57.0664 61.7965 56.6408 60.3445 56.6721C58.8924 56.7033 57.4946 57.1897 56.3794 58.0516C55.2642 58.9136 54.4973 60.1003 54.2041 61.4181C53.9108 62.7358 54.1084 64.1067 54.7647 65.307C55.4209 66.5072 56.497 67.466 57.8174 68.0267V68.0368Z" fill="#36464E"/>
<path fill-rule="evenodd" clip-rule="evenodd" d="M80.5203 46.9714H74.338V42.2185C74.3598 38.651 72.8877 35.2147 70.231 32.6319C68.9872 31.3934 67.4812 30.4056 65.8069 29.7301C64.1327 29.0547 62.3261 28.7061 60.5 28.7061C58.6739 28.7061 56.8673 29.0547 55.1931 29.7301C53.5188 30.4056 52.0128 31.3934 50.769 32.6319C48.1123 35.2147 46.6402 38.651 46.662 42.2185V46.9714H40.4797V42.2185C40.4709 37.1808 42.5629 32.3346 46.3188 28.6913C48.137 26.8951 50.3336 25.4634 52.7727 24.4847C55.2119 23.5059 57.8418 23.001 60.5 23.001C63.1582 23.001 65.7881 23.5059 68.2273 24.4847C70.6664 25.4634 72.863 26.8951 74.6812 28.6913C78.44 32.3329 80.5324 37.1802 80.5203 42.2185V46.9714Z" fill="#36464E"/>
</g>
</g>
<defs>
<clipPath id="clip0">
<rect width="122.88" height="109.43" fill="white"/>
</clipPath>
<clipPath id="clip1">
<rect width="51" height="62" fill="white" transform="translate(35 23)"/>
</clipPath>
</defs>
</svg>
